ffmpeg version 8.0.1-essentials_build-www.gyan.dev Copyright (c) 2000-2025 the FFmpeg developers
  built with gcc 15.2.0 (Rev8, Built by MSYS2 project)
  configuration: --enable-gpl --enable-version3 --enable-static --disable-w32threads --disable-autodetect --enable-fontconfig --enable-iconv --enable-gnutls --enable-libxml2 --enable-gmp --enable-bzlib --enable-lzma --enable-zlib --enable-libsrt --enable-libssh --enable-libzmq --enable-avisynth --enable-sdl2 --enable-libwebp --enable-libx264 --enable-libx265 --enable-libxvid --enable-libaom --enable-libopenjpeg --enable-libvpx --enable-mediafoundation --enable-libass --enable-libfreetype --enable-libfribidi --enable-libharfbuzz --enable-libvidstab --enable-libvmaf --enable-libzimg --enable-amf --enable-cuda-llvm --enable-cuvid --enable-dxva2 --enable-d3d11va --enable-d3d12va --enable-ffnvcodec --enable-libvpl --enable-nvdec --enable-nvenc --enable-vaapi --enable-openal --enable-libgme --enable-libopenmpt --enable-libopencore-amrwb --enable-libmp3lame --enable-libtheora --enable-libvo-amrwbenc --enable-libgsm --enable-libopencore-amrnb --enable-libopus --enable-libspeex --enable-libvorbis --enable-librubberband
  libavutil      60.  8.100 / 60.  8.100
  libavcodec     62. 11.100 / 62. 11.100
  libavformat    62.  3.100 / 62.  3.100
  libavdevice    62.  1.100 / 62.  1.100
  libavfilter    11.  4.100 / 11.  4.100
  libswscale      9.  1.100 /  9.  1.100
  libswresample   6.  1.100 /  6.  1.100
Input #0, image2, from 'temp_frames_en\frame_%04d.png':
  Duration: 00:00:56.00, start: 0.000000, bitrate: N/A
  Stream #0:0: Video: png, rgba(pc, gbr/unknown/unknown), 1920x959, 10 fps, 10 tbr, 10 tbn
[mp3 @ 0000018643f230c0] Estimating duration from bitrate, this may be inaccurate
Input #1, mp3, from 'public/audio/en_step0.mp3':
  Duration: 00:00:21.41, start: 0.000000, bitrate: 48 kb/s
  Stream #1:0: Audio: mp3 (mp3float), 24000 Hz, mono, fltp, 48 kb/s
[mp3 @ 0000018644aa5600] Estimating duration from bitrate, this may be inaccurate
Input #2, mp3, from 'public/audio/en_step1.mp3':
  Duration: 00:00:21.70, start: 0.000000, bitrate: 48 kb/s
  Stream #2:0: Audio: mp3 (mp3float), 24000 Hz, mono, fltp, 48 kb/s
[mp3 @ 0000018643e69a00] Estimating duration from bitrate, this may be inaccurate
Input #3, mp3, from 'public/audio/en_step2.mp3':
  Duration: 00:00:21.67, start: 0.000000, bitrate: 48 kb/s
  Stream #3:0: Audio: mp3 (mp3float), 24000 Hz, mono, fltp, 48 kb/s
[mp3 @ 0000018643e83c00] Estimating duration from bitrate, this may be inaccurate
Input #4, mp3, from 'public/audio/en_step3.mp3':
  Duration: 00:00:21.84, start: 0.000000, bitrate: 48 kb/s
  Stream #4:0: Audio: mp3 (mp3float), 24000 Hz, mono, fltp, 48 kb/s
Stream mapping:
  Stream #1:0 (mp3float) -> adelay:default
  Stream #2:0 (mp3float) -> adelay:default
  Stream #3:0 (mp3float) -> adelay:default
  Stream #4:0 (mp3float) -> adelay:default
  Stream #0:0 -> #0:0 (png (native) -> h264 (libx264))
  amix:default -> Stream #0:1 (aac)
Press [q] to stop, [?] for help
[libx264 @ 0000018644078940] using cpu capabilities: MMX2 SSE2Fast SSSE3 SSE4.2 AVX FMA3 BMI2 AVX2
[libx264 @ 0000018644078940] profile High, level 4.0, 4:2:0, 8-bit
[libx264 @ 0000018644078940] 264 - core 165 r3223 0480cb0 - H.264/MPEG-4 AVC codec - Copyleft 2003-2025 - http://www.videolan.org/x264.html - options: cabac=1 ref=3 deblock=1:0:0 analyse=0x3:0x113 me=hex subme=7 psy=1 psy_rd=1.00:0.00 mixed_ref=1 me_range=16 chroma_me=1 trellis=1 8x8dct=1 cqm=0 deadzone=21,11 fast_pskip=1 chroma_qp_offset=-2 threads=24 lookahead_threads=4 sliced_threads=0 nr=0 decimate=1 interlaced=0 bluray_compat=0 constrained_intra=0 bframes=3 b_pyramid=2 b_adapt=1 b_bias=0 direct=1 weightb=1 open_gop=0 weightp=2 keyint=250 keyint_min=10 scenecut=40 intra_refresh=0 rc_lookahead=40 rc=crf mbtree=1 crf=23.0 qcomp=0.60 qpmin=0 qpmax=69 qpstep=4 ip_ratio=1.40 aq=1:1.00
Output #0, mp4, to 'public/videos/demo_en.mp4':
  Metadata:
    encoder         : Lavf62.3.100
  Stream #0:0: Video: h264 (avc1 / 0x31637661), yuv420p(tv, progressive), 1920x958, q=2-31, 10 fps, 10240 tbn
    Metadata:
      encoder         : Lavc62.11.100 libx264
    Side data:
      cpb: bitrate max/min/avg: 0/0/0 buffer size: 0 vbv_delay: N/A
  Stream #0:1: Audio: aac (LC) (mp4a / 0x6134706D), 24000 Hz, mono, fltp, 69 kb/s
    Metadata:
      encoder         : Lavc62.11.100 aac
frame=    0 fps=0.0 q=0.0 size=       0KiB time=N/A bitrate=N/A speed=N/A elapsed=0:00:00.51    frame=    5 fps=4.9 q=25.0 size=       0KiB time=00:00:00.30 bitrate=   1.3kbits/s speed=0.292x elapsed=0:00:01.02    frame=   44 fps= 28 q=25.0 size=     256KiB time=00:00:04.20 bitrate= 499.4kbits/s speed=2.72x elapsed=0:00:01.54    frame=   85 fps= 41 q=25.0 size=     768KiB time=00:00:08.30 bitrate= 758.1kbits/s speed=4.02x elapsed=0:00:02.06    frame=  127 fps= 49 q=25.0 size=    1024KiB time=00:00:12.50 bitrate= 671.1kbits/s speed=4.83x elapsed=0:00:02.58    frame=  170 fps= 55 q=25.0 size=    1280KiB time=00:00:16.80 bitrate= 624.2kbits/s speed=5.43x elapsed=0:00:03.09    frame=  213 fps= 59 q=25.0 size=    1280KiB time=00:00:21.10 bitrate= 497.0kbits/s speed=5.83x elapsed=0:00:03.61    frame=  256 fps= 62 q=25.0 size=    1280KiB time=00:00:25.40 bitrate= 412.8kbits/s speed=6.16x elapsed=0:00:04.12    frame=  299 fps= 64 q=25.0 size=    1280KiB time=00:00:29.70 bitrate= 353.1kbits/s speed= 6.4x elapsed=0:00:04.63    frame=  343 fps= 67 q=25.0 size=    1280KiB time=00:00:34.10 bitrate= 307.5kbits/s speed=6.61x elapsed=0:00:05.15    frame=  384 fps= 68 q=25.0 size=    1792KiB time=00:00:38.20 bitrate= 384.3kbits/s speed=6.74x elapsed=0:00:05.67    frame=  428 fps= 69 q=25.0 size=    2048KiB time=00:00:42.60 bitrate= 393.8kbits/s speed=6.89x elapsed=0:00:06.18    frame=  468 fps= 70 q=25.0 size=    2048KiB time=00:00:46.60 bitrate= 360.0kbits/s speed=6.94x elapsed=0:00:06.71    frame=  524 fps= 72 q=25.0 size=    2304KiB time=00:00:52.20 bitrate= 361.6kbits/s speed=7.21x elapsed=0:00:07.23    frame=  585 fps= 75 q=25.0 size=    2816KiB time=00:00:58.30 bitrate= 395.7kbits/s speed=7.51x elapsed=0:00:07.75    frame=  646 fps= 78 q=25.0 size=    3328KiB time=00:01:04.40 bitrate= 423.3kbits/s speed=7.78x elapsed=0:00:08.27    frame=  723 fps= 82 q=25.0 size=    3840KiB time=00:01:12.10 bitrate= 436.3kbits/s speed= 8.2x elapsed=0:00:08.78    frame=  786 fps= 85 q=22.0 size=    4352KiB time=00:01:18.40 bitrate= 454.7kbits/s speed=8.44x elapsed=0:00:09.29    [out#0/mp4 @ 0000018643de8040] video:5117KiB audio:188KiB subtitle:0KiB other streams:0KiB global headers:0KiB muxing overhead: 0.312688%
frame=  870 fps= 90 q=-1.0 Lsize=    5322KiB time=00:00:21.40 bitrate=2036.6kbits/s speed=2.23x elapsed=0:00:09.62    
[libx264 @ 0000018644078940] frame I:19    Avg QP:10.47  size: 86000
[libx264 @ 0000018644078940] frame P:273   Avg QP:18.48  size:  9836
[libx264 @ 0000018644078940] frame B:578   Avg QP:21.77  size:  1592
[libx264 @ 0000018644078940] consecutive B-frames:  7.2%  8.0% 13.4% 71.3%
[libx264 @ 0000018644078940] mb I  I16..4: 67.8% 15.6% 16.6%
[libx264 @ 0000018644078940] mb P  I16..4:  8.8%  2.3%  1.4%  P16..4:  4.3%  1.1%  0.7%  0.0%  0.0%    skip:81.3%
[libx264 @ 0000018644078940] mb B  I16..4:  1.2%  0.5%  0.1%  B16..8:  6.6%  0.7%  0.1%  direct: 0.3%  skip:90.5%  L0:50.8% L1:47.0% BI: 2.2%
[libx264 @ 0000018644078940] 8x8 transform intra:18.9% inter:67.0%
[libx264 @ 0000018644078940] coded y,uvDC,uvAC intra: 17.8% 51.0% 16.3% inter: 1.0% 2.0% 0.3%
[libx264 @ 0000018644078940] i16 v,h,dc,p: 54% 42%  3%  1%
[libx264 @ 0000018644078940] i8 v,h,dc,ddl,ddr,vr,hd,vl,hu: 38% 34% 25%  1%  0%  0%  0%  0%  1%
[libx264 @ 0000018644078940] i4 v,h,dc,ddl,ddr,vr,hd,vl,hu: 33% 29% 22%  2%  3%  3%  3%  2%  3%
[libx264 @ 0000018644078940] i8c dc,h,v,p: 34% 38% 27%  2%
[libx264 @ 0000018644078940] Weighted P-Frames: Y:2.2% UV:1.5%
[libx264 @ 0000018644078940] ref P L0: 60.7%  6.9% 21.1% 11.2%  0.0%
[libx264 @ 0000018644078940] ref B L0: 73.1% 22.0%  5.0%
[libx264 @ 0000018644078940] ref B L1: 93.7%  6.3%
[libx264 @ 0000018644078940] kb/s:481.78
[aac @ 000001864408c4c0] Qavg: 5144.533
